# xmcd
#
# Track frame offsets:
#	150
#	11912
#	23722
#	33865
#	45082
#	59495
#	70332
#	83847
#	99762
#	111990
#
# Disc length: 1678 seconds
# Revision: 4
# Processed by: cddbd v1.5.2PL0 Copyright (c) Steve Scherf et al.
# Submitted via: dBpowerAMP V12.0
#
DISCID=73068c0a
DTITLE=Doc Watson - Reflections
DYEAR=1980
DGENRE=Country
TTITLE0=Dill Pickle Rag
TTITLE1=Me and Chet Made a Record
TTITLE2=Flatt Did It
TTITLE3=Tennessee Rag - Beaumont Rag
TTITLE4=Texas Gales - Old Joe Clark
TTITLE5=You're Gonna Be Sorry
TTITLE6=Goodnight Waltz
TTITLE7=Don't Monkey 'Round My Widder
TTITLE8=Black and White - Ragtime Annie
TTITLE9=On My Way to Canaan's Land
EXTD=
EXTT0=
EXTT1=
EXTT2=
EXTT3=
EXTT4=
EXTT5=
EXTT6=
EXTT7=
EXTT8=
EXTT9=
PLAYORDER=
